# xmcd
#
# Track frame offsets:
# 150
# 13900
# 28836
# 52090
# 62673
# 74806
# 92957
# 112814
# 129912
# 148416
# 166887
# 181924
# 199244
# 218954
# 236800
#
# Disc length: 3525 seconds
#
#
# Revision: 0
# Processed by: cddbd v1.5.2PL0 Copyright (c) Steve Scherf et al.
# Submitted via: Nero 7, 11, 10, 0 
#
DISCID=ea0dc30f
DTITLE=Robert Ealey - You Don't Get This Everyday
DYEAR=1995
DGENRE=Blues
TTITLE0=Faith
TTITLE1=Red Dog
TTITLE2=I Love You
TTITLE3=Sally Mae
TTITLE4=Say What
TTITLE5=Come On Baby
TTITLE6=Leavin' DFW
TTITLE7=Big Leg Woman
TTITLE8=Don't Bite
TTITLE9=Keep Pushin'
TTITLE10=Natural Love Song
TTITLE11=Baby Don't Work
TTITLE12=Coulda Had It
TTITLE13=Jenny Song
TTITLE14=Antones Blues
EXTD=
EXTT0=Faith
EXTT1=Red Dog
EXTT2=I Love You
EXTT3=Sally Mae
EXTT4=Say What
EXTT5=Come On Baby
EXTT6=Leavin' DFW
EXTT7=Big Leg Woman
EXTT8=Don't Bite
EXTT9=Keep Pushin'
EXTT10=Natural Love Song
EXTT11=Baby Don't Work
EXTT12=Coulda Had It
EXTT13=Jenny Song
EXTT14=Antones Blues
PLAYORDER=
